<svg width="9" height="9" viewBox="0 0 9 9" fill="none" xmlns="http://www.w3.org/2000/svg">
<g clip-path="url(#clip0_1_217)">
<path d="M2.41672 0.0899267L1.96588 0.540797C1.90568 0.600875 1.87567 0.670082 1.87567 0.748322C1.87567 0.826373 1.90568 0.895549 1.96588 0.955626L5.51002 4.49995L1.96598 8.04412C1.90577 8.10423 1.87577 8.1734 1.87577 8.25155C1.87577 8.32973 1.90577 8.3989 1.96598 8.45898L2.41685 8.90979C2.47693 8.96999 2.5461 9 2.62428 9C2.70239 9 2.77157 8.9699 2.83165 8.90979L7.03415 4.70738C7.09426 4.6473 7.12429 4.5781 7.12429 4.49995C7.12429 4.42181 7.09426 4.35273 7.03415 4.29268L2.83165 0.0899267C2.77154 0.029849 2.70236 -3.61358e-08 2.62428 -3.27227e-08C2.5461 -2.93054e-08 2.47693 0.029849 2.41672 0.0899267Z" fill="white"/>
</g>
<defs>
<clipPath id="clip0_1_217">
<rect width="9" height="9" fill="white" transform="translate(0 9) rotate(-90)"/>
</clipPath>
</defs>
</svg>
