<svg width="22" height="22" viewBox="0 0 22 22" fill="none" xmlns="http://www.w3.org/2000/svg">
<g clip-path="url(#clip0_1_391)">
<path d="M11 22C17.0751 22 22 17.0751 22 11C22 4.92487 17.0751 0 11 0C4.92487 0 0 4.92487 0 11C0 17.0751 4.92487 22 11 22Z" fill="#26A17B"/>
<path fill-rule="evenodd" clip-rule="evenodd" d="M12.3214 11.9507V11.9494C12.2458 11.9549 11.856 11.9782 10.9863 11.9782C10.2919 11.9782 9.80311 11.9576 9.63124 11.9494V11.9514C6.95824 11.8339 4.96311 11.3684 4.96311 10.8116C4.96311 10.2554 6.95824 9.78993 9.63124 9.6703V11.488C9.80586 11.5004 10.3064 11.53 10.998 11.53C11.8278 11.53 12.2437 11.4956 12.3214 11.4887V9.67168C14.9889 9.79061 16.9792 10.2561 16.9792 10.8116C16.9792 11.3684 14.9889 11.8325 12.3214 11.9507ZM12.3214 9.48261V7.85599H16.0435V5.37549H5.90911V7.85599H9.63124V9.48193C6.60624 9.6208 4.3313 10.2203 4.3313 10.9381C4.3313 11.6558 6.60624 12.2546 9.63124 12.3942V17.6068H12.3214V12.3928C15.3416 12.2539 17.611 11.6551 17.611 10.9381C17.611 10.221 15.3416 9.62218 12.3214 9.48261Z" fill="white"/>
</g>
<defs>
<clipPath id="clip0_1_391">
<rect width="22" height="22" fill="white"/>
</clipPath>
</defs>
</svg>
